<svg width="192" height="136" viewBox="0 0 192 136" fill="none" xmlns="http://www.w3.org/2000/svg">
<path d="M114.817 10.6042C113.885 10.6042 112.979 11.1417 112.23 11.6766C111.892 11.918 111.817 12.6575 111.736 13.0212C111.576 13.7398 111.447 14.4568 111.447 15.1957C111.447 15.6201 111.43 16.0484 111.451 16.4723C111.48 17.0727 111.663 17.5176 111.872 18.068C112.284 19.1523 113.232 20.0894 114.17 20.7149C115.321 21.482 116.785 21.7951 118.153 21.9234C118.93 21.9962 119.604 22.003 120.349 21.8808C121.098 21.7581 121.761 21.4017 122.511 21.2851C122.988 21.2108 123.397 20.8673 123.779 20.5915C124.018 20.4184 123.997 20.1405 124.013 19.8766C124.028 19.6116 124.138 19.4185 124.234 19.1787C124.694 18.0297 124.674 16.7385 124.77 15.5319C124.833 14.7489 124.93 13.4857 124.536 12.7829C124.325 12.4065 124.008 12.1614 123.702 11.8723C123.285 11.4782 122.702 11.3716 122.247 11.0468C121.895 10.7958 121.398 10.7394 120.996 10.5787C120.495 10.3784 120.019 10.2842 119.489 10.2042C118.688 10.0832 117.936 9.99146 117.119 9.99146C116.664 9.99146 116.344 10.0478 115.928 10.1404C115.586 10.2164 115.221 10.5276 114.894 10.5276" stroke="white" stroke-linecap="round"/>
<path d="M113.515 11.1404C113.269 11.0583 113.239 10.4016 113.132 10.1872C113.024 9.97055 112.928 9.73691 112.826 9.53186" stroke="white" stroke-linecap="round"/>
<path d="M117.881 10.3745C117.881 9.57395 117.91 8.70827 118.264 8" stroke="white" stroke-linecap="round"/>
<path d="M122.094 11.5234C122.177 11.0216 122.695 10.4007 123.038 10.0425C123.426 9.63792 123.927 9.38353 124.315 8.99573" stroke="white" stroke-linecap="round"/>
<path d="M115.047 14.1276C114.758 14.1997 115.166 14.8779 115.459 14.8127C115.608 14.7796 115.583 14.2864 115.583 14.1617C115.583 13.9327 115.568 13.8927 115.353 13.8212" stroke="white" stroke-linecap="round"/>
<path d="M120.408 14.2808C120.408 14.4682 120.321 14.6177 120.332 14.817C120.339 14.9514 120.719 14.9192 120.796 14.8553C121.089 14.6106 120.949 13.8978 120.485 13.8978" stroke="white" stroke-linecap="round"/>
<path d="M116.502 18.1872C117.141 18.5424 117.428 19.1283 118.298 18.8382C118.818 18.6648 119.206 18.3984 119.413 17.8808" stroke="white" stroke-linecap="round"/>
<path d="M117.881 22.4766C117.852 23.2711 117.574 24.0502 117.574 24.8468C117.574 25.459 117.61 26.044 117.655 26.6511C117.705 27.3183 117.881 27.9771 117.881 28.6426C117.881 29.2695 117.881 29.8965 117.881 30.5234C117.881 33.4582 117.881 36.3929 117.881 39.3277" stroke="white" stroke-linecap="round"/>
<path d="M117.881 39.0212C117.362 40.1899 116.702 41.4236 115.962 42.4723C115.605 42.9771 115.222 43.4649 114.86 43.9659C114.662 44.2385 114.515 44.8405 114.204 44.9957" stroke="white" stroke-linecap="round"/>
<path d="M118.034 39.0212C118.034 39.5497 118.517 40.0661 118.86 40.4255C119.108 40.6864 119.248 40.9764 119.464 41.2595C119.716 41.5904 120.029 41.8644 120.298 42.1787C120.52 42.4384 120.707 42.6944 120.962 42.9276C121.231 43.1745 121.345 43.4935 121.574 43.7702C121.82 44.0659 122.084 44.5341 122.477 44.6127" stroke="white" stroke-linecap="round"/>
<path d="M117.881 29.8298C117.685 29.4714 119.396 28.8802 119.596 28.7659C120.567 28.2112 121.603 27.6073 122.63 27.1659C122.98 27.0152 123.337 26.8755 123.702 26.7659C124.017 26.6715 124.244 26.4319 124.549 26.3064C125.042 26.1034 125.587 25.9609 126 25.617" stroke="white" stroke-linecap="round"/>
<path d="M117.957 29.5234C117.722 29.4981 117.559 29.389 117.353 29.2766C116.903 29.031 116.425 28.8523 115.949 28.6638C114.808 28.212 113.684 27.6559 112.519 27.2723C111.628 26.9788 110.719 26.7626 109.8 26.5787C109.201 26.4589 108.497 26.5509 108 26.1532" stroke="white" stroke-linecap="round"/>
<path d="M31.1023 37.5713C30.7763 37.5386 30.5239 37.2578 30.1937 37.3178C29.6449 37.4176 29.21 37.9528 28.8214 38.3077C28.0314 39.0289 27.6594 40.0603 27.6594 41.1194C27.6594 41.8738 27.6471 42.5712 27.9606 43.2808C28.4354 44.3553 29.2773 45.2599 30.2416 45.9156C31.9074 47.0483 34.3606 47.778 36.3719 47.4123C36.7027 47.3521 37.0697 47.2736 37.3856 47.1541C37.529 47.0998 37.71 46.9131 37.8638 46.9054C37.9291 46.9021 37.9005 47.097 37.9021 47.1254C37.9107 47.2799 37.9781 47.4055 38.0551 47.5366C38.6814 48.6037 39.9041 49.2698 41.0533 49.6167C42.4867 50.0494 44.3285 50.2006 45.7299 49.6167C46.9042 49.1274 47.6987 48.2392 48.3839 47.2114C48.7005 46.7365 48.8765 47.2697 49.1776 47.5366C49.8636 48.1446 50.646 48.4479 51.5208 48.6747C52.3139 48.8803 53.0858 48.9329 53.9021 48.9329C54.6433 48.9329 55.4217 48.9986 56.1352 48.7608C57.3121 48.3685 58.2146 47.0367 58.8083 46.0112C59.1684 45.3891 59.3779 44.2341 59.143 43.5294C59.1086 43.4263 59.5935 43.7743 59.7838 43.8546C60.4115 44.1193 61.1352 44.1989 61.8113 44.1989C62.297 44.1989 62.9754 44.236 63.3797 43.9215C63.908 43.5106 64.4291 42.9255 64.7473 42.3387C65.48 40.9879 65.118 39.3537 64.1878 38.2168C63.7226 37.6482 63.2458 37.3031 62.5668 37.0452C62.0375 36.8442 61.5248 36.5384 60.9505 36.5384C60.7163 36.5384 59.9132 36.6721 60.1663 36.2419C60.4682 35.7287 60.8015 35.5061 60.8645 34.8839C61.1547 32.0179 57.4148 32.2604 55.504 32.4164C54.405 32.5061 53.2565 33.5039 52.5536 34.3005C52.4692 34.3962 51.694 33.4611 51.6068 33.3728C51.0127 32.7713 50.4081 32.1784 49.7228 31.68C48.5084 30.7968 46.7856 30.9162 45.357 31.1588C43.8645 31.4122 42.4092 32.1369 41.4359 33.3106C41.1117 33.7015 40.8489 34.1177 40.7616 34.6256C40.693 35.0247 40.7647 35.3006 40.3982 34.9412C39.3384 33.9022 37.898 32.9412 36.391 32.7703C34.3023 32.5334 31.952 32.7461 30.5524 34.5109C29.9647 35.2519 30.0253 36.4292 30.4998 37.1409" stroke="white" stroke-linecap="round"/>
<path d="M28.6061 38.0016C27.7423 37.1377 26.7038 36.068 26.2009 34.9364C25.6541 33.7061 25.2258 32.3008 25.0772 30.9627C24.9535 29.8497 24.9428 28.9199 25.3162 27.8641C25.753 26.6291 26.5905 25.3785 27.5541 24.4881C28.4983 23.6157 29.4272 22.5642 30.581 21.9633C32.2468 21.0957 34.0168 20.7521 35.8459 20.4092C36.7844 20.2332 37.7754 20.2581 38.7245 20.1175C39.8751 19.947 41.0551 20.0123 42.2153 20.0123C43.2688 20.0123 44.3224 19.9833 45.3713 20.0983C46.7002 20.2441 47.9804 20.5312 49.2972 20.7391C51.5082 21.0882 53.5726 21.4215 55.6522 22.2502C57.3582 22.93 59.0838 23.8414 60.415 25.1384C61.54 26.2346 62.4698 27.371 62.6003 29.0021C62.656 29.6992 62.605 30.4164 62.605 31.1157C62.605 31.5683 62.6127 31.9869 62.4138 32.4068C62.1299 33.0061 61.5876 33.4165 61.2279 33.9561" stroke="white" stroke-linecap="round"/>
<path d="M60.195 33.0093C60.195 32.2931 60.3581 31.2772 59.8507 30.6853C59.6814 30.4878 59.5655 30.1736 59.3773 30.0063C59.0718 29.7347 58.727 29.4073 58.4735 29.0834C57.9266 28.3845 57.0625 27.9054 56.36 27.3715C55.5003 26.7182 54.5617 26.3189 53.6534 25.7409C52.7421 25.1609 51.7318 24.9521 50.727 24.5932C50.1493 24.387 49.5046 24.4974 48.9146 24.3111C48.2979 24.1163 47.54 23.9781 46.8967 23.8951C44.1274 23.5378 41.2453 23.8855 38.4663 23.8855C37.4747 23.8855 36.0991 23.9612 35.186 24.402C34.7314 24.6214 34.2218 24.6779 33.7706 24.8993C33.2735 25.1431 32.751 25.5206 32.2212 25.6739C31.4149 25.9074 30.5863 26.5121 29.8781 26.9842C29.4525 27.2679 29.0777 27.6849 28.9505 28.194C28.6368 29.4487 28.186 30.5251 28.2619 31.8521C28.2768 32.1139 28.4494 32.5834 28.5583 32.8324C28.6855 33.123 28.7995 33.4467 29.0318 33.6596C29.1637 33.7806 29.3862 34.137 29.486 34.3004C29.611 34.5049 29.8856 34.6214 29.9833 34.8168" stroke="white" stroke-linecap="round"/>
<path d="M32.8237 33.0093C31.7319 31.9175 30.6627 29.7888 31.9247 28.4426C32.2836 28.0598 32.8991 27.6606 33.4166 27.5867C33.8804 27.5204 34.3618 27.1194 34.8034 26.9459C36.9768 26.0921 39.3007 26.2095 41.5936 26.2095C42.6175 26.2095 43.6914 26.1139 44.7018 26.2956C45.726 26.4797 46.7619 26.6389 47.7909 26.812C48.5473 26.9393 49.2562 27.0763 49.9714 27.3476C50.4128 27.515 51.2266 27.8535 51.4872 28.2705C51.7096 28.6263 52.0453 28.8834 52.2858 29.2269C52.6013 29.6775 52.9357 30.1621 53.3091 30.5562C53.7759 31.0489 53.9977 31.7174 53.9977 32.4068" stroke="white" stroke-linecap="round"/>
<path d="M46.165 30.8575C46.165 29.7758 45.3479 29.2099 44.4817 28.7917C43.7652 28.4458 42.8279 28.5335 42.0526 28.5335C41.3339 28.5335 40.4943 28.4064 39.7955 28.6005C37.823 29.1484 37.3855 31.089 37.3855 32.8372" stroke="white" stroke-linecap="round"/>
<path d="M23.9056 79.9804C24.548 79.9804 25.1988 79.8236 25.8429 79.7791C26.4912 79.7342 27.1687 79.5778 27.808 79.4527C29.2453 79.1715 30.7049 79.3398 32.1581 79.2236C33.0611 79.1513 33.938 79.043 34.8488 79.043C35.071 79.043 36.658 78.8507 36.5152 79.2791C36.4439 79.4932 36.201 79.7365 36.0778 79.9318C35.8767 80.2507 35.6345 80.5678 35.3904 80.8553C34.8704 81.4677 34.3208 82.0583 33.8072 82.6746C33.3189 83.2605 32.8387 83.8529 32.4046 84.4799C32.199 84.7769 31.9667 85.0398 31.7485 85.327C31.6345 85.4769 31.5724 85.7709 31.4047 85.8547" stroke="white" stroke-linecap="round"/>
<path d="M23.5932 80.6053C23.8902 80.9023 24.1071 81.2746 24.2807 81.6538C24.497 82.1264 24.7796 82.5384 24.9056 83.0426C24.9644 83.2779 25.1102 83.4479 25.2111 83.664C25.3003 83.8552 25.2814 84.0362 25.4055 84.216C25.5329 84.4005 25.2852 84.378 25.1417 84.4174C24.8341 84.5017 24.5252 84.5814 24.2182 84.6674C23.1921 84.9547 22.1255 85.1321 21.1213 85.4937C20.5913 85.6845 20.0502 85.8573 19.5312 86.0769C19.216 86.2103 18.787 86.2261 19.1216 86.5421C19.5136 86.9124 20.0457 87.1948 20.4756 87.5142C21.1913 88.0461 21.9316 88.5228 22.6906 88.9828C23.8471 89.6837 24.9216 90.5098 26.086 91.1978C26.2758 91.31 26.4666 91.5091 26.6693 91.5901C26.9311 91.6949 27.0377 91.805 26.8394 92.0727C26.1488 93.0051 25.2684 93.8224 24.5063 94.6974C23.937 95.3511 23.4408 96.098 22.951 96.8117C22.508 97.4572 22.025 98.0629 21.5935 98.7143C21.4509 98.9295 20.6757 99.875 21.413 99.3774C21.8454 99.0855 22.2767 98.7902 22.7357 98.5407C23.5122 98.1187 24.3917 97.9266 25.1556 97.4853C27.4616 96.1529 29.7978 94.8316 32.0297 93.3747C33.0972 92.6778 34.1923 92.0308 35.2655 91.3402C35.6196 91.1123 35.9697 90.9115 36.3417 90.7153C36.6859 90.5337 36.9203 90.2331 37.2375 90.0174C37.2873 89.9835 37.5081 89.867 37.4458 89.8091C37.1902 89.5718 36.9017 89.3526 36.5848 89.205C35.5972 88.7453 34.4743 88.525 33.4254 88.2503C32.5605 88.0238 31.6412 87.9253 30.7903 87.6635C30.3798 87.5372 29.9173 87.5498 29.53 87.3823C29.3852 87.3197 28.8475 87.4473 29.162 87.1983C29.4698 86.9546 29.9181 86.7121 30.2661 86.5421C30.5867 86.3856 30.8166 86.1282 31.1479 86.004C31.3622 85.9237 31.4796 85.6298 31.6548 85.5423" stroke="white" stroke-linecap="round"/>
<path d="M23.7007 80.0231C23.6197 80.0231 23.317 80.0797 23.29 80.1742C23.2446 80.3329 23.4219 80.4119 23.4641 80.4962" stroke="white" stroke-linecap="round"/>
<path d="M88.3596 64.6323C88.3596 64.367 88.5764 64.0489 88.7115 63.8301C88.9559 63.4345 89.2407 63.0337 89.6479 62.8132C89.8519 62.7027 90.0082 62.5306 90.2384 62.4673C90.4836 62.3998 90.7421 62.3347 90.9898 62.2764C91.455 62.167 91.9947 62.0217 92.469 62.005C93.8446 61.9568 95.2376 62.2521 96.3994 63.0219C96.908 63.359 97.3348 63.7489 97.7026 64.2357C98.3111 65.0411 98.4455 65.8732 98.4779 66.8659C98.5388 68.7274 97.9223 70.4759 96.6231 71.8251C95.974 72.4991 95.3092 73.1621 94.5922 73.7635C93.9594 74.2944 93.4476 74.9297 92.8447 75.4872C91.7182 76.5289 90.5077 77.6304 89.6807 78.9375C89.3799 79.413 89.3692 79.8789 89.3139 80.4136C89.282 80.7215 89.1111 81.0185 89.1111 81.3262" stroke="white" stroke-linecap="round"/>
<path d="M88.2522 65.008C88.2522 64.2815 87.1609 63.6277 86.6001 63.3679C85.8204 63.0065 84.9172 62.5552 84.0534 62.4732C83.1154 62.3843 82.0517 62.2517 81.116 62.4076C80.3317 62.5384 79.5012 62.8988 78.8616 63.3709C78.1183 63.9194 77.6433 64.5034 77.3019 65.3569C77.0316 66.0328 76.8833 66.9366 77.114 67.6442C77.2567 68.0817 77.3058 68.4931 77.5464 68.8997C77.8166 69.3562 78.17 69.7473 78.4828 70.1731C79.6489 71.7603 81.1605 73.0751 82.616 74.3898C83.4159 75.1122 84.1856 75.8693 85.0137 76.5608C85.7413 77.1684 86.4685 77.7903 87.1787 78.4216C87.3949 78.6138 87.6348 78.7619 87.8467 78.9614C87.9801 79.087 88.0402 79.2474 88.1956 79.3639C88.4173 79.5302 88.7425 79.9504 88.792 80.2228C88.8197 80.375 88.9431 80.5557 88.9978 80.7059C89.0485 80.8454 89.0082 81.0174 89.0574 81.1651" stroke="white" stroke-linecap="round"/>
<path d="M138.442 83.6656C136.021 83.6656 133.108 84.2138 131.454 86.1617C130.896 86.8195 130.225 87.4011 129.781 88.1567C129.482 88.6658 129.422 89.2202 129.298 89.785C128.942 91.4118 128.602 93.1037 128.395 94.7593C128.313 95.4124 128.321 96.2 128.395 96.8527C128.515 97.9215 129.078 98.7267 129.629 99.6083C130.284 100.656 131.063 101.669 131.946 102.529C132.84 103.4 133.746 104.326 134.8 105.003C135.463 105.428 136.172 105.763 136.831 106.193C137.851 106.858 139.242 107.047 140.41 107.32C141.032 107.466 141.696 107.541 142.333 107.58C143.165 107.63 143.988 107.789 144.821 107.817C146.165 107.861 147.36 107.763 148.667 107.499C149.162 107.399 149.473 107.081 149.924 106.891C150.548 106.628 151.136 106.233 151.718 105.889C152.188 105.611 152.594 105.25 152.953 104.842C153.391 104.345 153.897 103.875 154.295 103.348C154.939 102.494 155.658 101.66 156.057 100.655C156.398 99.7968 156.721 99.0517 156.916 98.141C157.127 97.159 157.244 96.0956 157.355 95.0992C157.549 93.3515 157.253 91.5894 156.379 90.0534C156.061 89.4929 155.823 88.9584 155.431 88.443C154.664 87.4346 153.794 86.8341 152.743 86.1169C152.177 85.7314 151.508 85.4617 150.877 85.2223C150.025 84.8992 149.198 84.4476 148.292 84.2919C147.511 84.1577 146.794 83.6856 145.992 83.6656C145.51 83.6535 145.145 83.4187 144.682 83.3569C144.124 83.2825 143.582 83.313 143.036 83.1422C142.312 82.9162 141.414 82.9409 140.656 82.9409C140.085 82.9409 139.513 82.9285 138.943 82.9409C138.142 82.9584 137.401 83.2569 136.831 83.8266" stroke="white" stroke-linecap="round"/>
<path d="M136.348 90.9928C136.365 91.1472 136.448 91.5526 136.608 91.619C136.97 91.7702 136.932 91.6853 137.153 91.3954C137.229 91.2964 137.338 90.6816 137.153 90.6707C136.967 90.6597 136.776 90.6707 136.59 90.6707" stroke="white" stroke-linecap="round"/>
<path d="M136.992 91.3954C136.933 91.3879 136.542 91.0733 136.751 91.0733" stroke="white" stroke-linecap="round"/>
<path d="M148.023 91.0733C147.677 91.1118 147.273 92.0825 147.138 92.3616C146.952 92.7425 147.261 92.917 147.616 93.0057C148.571 93.2445 149.106 92.2531 148.547 91.4446C148.354 91.1665 148.317 90.9407 147.983 91.2746C147.78 91.4775 147.54 91.7384 147.54 92.0395C147.54 92.2617 147.549 92.5482 147.827 92.5987C148.137 92.6552 148.023 91.9769 148.023 91.798" stroke="white" stroke-linecap="round"/>
<path d="M136.751 99.8499C136.807 100.131 137.319 100.592 137.52 100.812C137.716 101.025 138.038 101.2 138.29 101.348C139.717 102.192 141.662 102.587 143.309 102.587C144.139 102.587 145.029 102.677 145.854 102.574C146.307 102.517 146.915 102.388 147.344 102.23C147.648 102.117 147.922 101.875 148.229 101.787C148.806 101.622 149.241 101.148 149.714 100.807C150.024 100.584 150.459 100.204 150.6 99.8499" stroke="white" stroke-linecap="round"/>
<path d="M144.561 80.5254C144.609 80.3813 144.93 80.1778 145.053 80.0826C145.365 79.8415 145.644 79.5746 145.975 79.3579C146.563 78.9723 147.163 78.6187 147.742 78.2441C147.887 78.15 148.014 78.1516 148.149 78.0293C148.403 77.7981 148.345 78.2536 148.345 78.3917C148.345 78.9016 148.345 79.4116 148.345 79.9215C148.345 80.0804 148.337 81.3638 148.475 81.3485C148.614 81.333 149.027 80.5041 149.142 80.3733C149.423 80.0521 149.639 79.7037 149.884 79.3579C150.388 78.6476 151.213 78.1537 151.683 77.4344C151.875 77.1393 152.245 76.9476 152.497 76.6963C153.036 76.1571 153.608 75.613 154.179 75.1083C154.92 74.4526 155.68 73.6614 156.54 73.1535C157.048 72.8542 157.475 72.4099 157.972 72.1336C158.306 71.9479 157.754 73.5871 157.686 73.744C157.265 74.7043 156.915 75.7311 156.576 76.7232C155.865 78.8057 155.399 80.8592 155.127 83.0394C155.11 83.171 155.007 84.7059 155.109 84.7571C155.296 84.8505 156.109 84.1398 156.254 84.0235C156.466 83.8542 156.69 83.7349 156.925 83.612C157.055 83.5439 157.143 83.4036 157.283 83.357C157.389 83.3216 157.498 83.3521 157.601 83.2944C157.726 83.2238 158.668 82.7073 158.768 82.7933C159.113 83.0887 158.43 84.4448 158.334 84.7482C158.079 85.5572 157.594 86.2934 157.328 87.0921C157.259 87.2982 157.256 87.4832 157.167 87.6871C157.069 87.9105 157.287 87.8526 157.449 87.8526C158.243 87.8526 159.038 87.8526 159.833 87.8526C162.679 87.8526 165.526 87.8526 168.372 87.8526C168.689 87.8526 172.868 87.7959 172.868 87.9063C172.868 88.2248 172.178 88.6656 171.955 88.8188C171.398 89.2021 170.831 89.5445 170.246 89.8834C168.306 91.0078 166.341 92.0933 164.431 93.2652C163.539 93.8128 162.474 94.2943 161.712 95.0187C161.265 95.4429 160.87 95.8803 160.423 96.307C160.307 96.4184 159.77 96.7345 159.801 96.9064C159.821 97.0115 160.276 97.1522 160.387 97.1927C160.779 97.3352 161.154 97.6453 161.465 97.9174C161.755 98.171 162.309 98.4587 162.512 98.7628C162.681 99.0159 163.396 99.1574 162.79 99.2102C161.717 99.3034 160.71 99.2804 159.658 99.5278C159.36 99.5979 159.054 99.7158 159.054 100.051C159.054 100.266 159.992 100.9 160.182 100.982C160.647 101.181 161.178 101.848 161.533 102.203C162.645 103.315 163.721 104.461 164.879 105.531C165.874 106.451 166.966 107.278 167.992 108.161C168.383 108.498 168.821 108.757 169.227 109.074C169.387 109.199 169.78 109.423 169.361 109.432C168.662 109.445 168.275 109.407 167.634 109.145C166.088 108.513 164.412 108.633 162.794 108.367C160.462 107.984 157.991 108.224 155.628 108.224C155.22 108.224 154.995 108.174 155.145 108.667C155.319 109.238 155.455 109.835 155.507 110.429C155.556 110.988 155.742 111.572 155.874 112.124C155.968 112.521 155.601 111.993 155.512 111.892C155.236 111.578 154.902 111.416 154.595 111.154C154.022 110.666 153.387 110.341 152.778 109.915C152.486 109.71 152.205 109.555 151.929 109.32C151.777 109.19 151.405 108.894 151.405 109.239C151.405 113.626 150.189 117.926 149.28 122.194C149.265 122.265 149.032 123.904 149.008 123.907C148.999 123.908 148.99 122.68 148.99 122.565C148.99 121.296 148.876 120.011 148.587 118.772C148.323 117.637 147.867 116.592 147.442 115.515C147.089 114.621 146.781 113.576 146.252 112.769C145.828 112.121 145.373 111.157 144.704 110.72C144.433 110.543 144.138 111.788 144.096 112.008C143.986 112.582 143.742 113.114 143.613 113.681C143.546 113.977 143.523 113.835 143.474 113.618C143.407 113.324 143.352 113.057 143.233 112.778C143.078 112.417 142.771 111.9 142.503 111.632C142.397 111.526 142.187 111.413 142.11 111.315C142.096 111.297 142 111.013 141.94 111.064C141.709 111.262 141.559 111.85 141.457 112.138C141.308 112.557 141.175 112.969 141.05 113.395C140.258 116.075 138.504 118.343 137.73 121.049C137.479 121.93 136.96 122.736 136.63 123.598C136.517 123.893 136.301 124.155 136.196 124.444C136.119 124.657 136.323 123.85 136.348 123.759C137.287 120.407 137.717 116.929 137.717 113.449C137.717 112.328 137.649 111.189 137.78 110.076C137.794 109.956 137.873 109.472 137.78 109.369C137.746 109.332 137.316 109.656 137.27 109.682C135.808 110.496 134.239 110.991 132.707 111.623C132.595 111.67 131.808 112.048 131.714 111.937C131.552 111.745 132.129 111.136 132.242 110.988C132.645 110.462 133.032 109.742 133.244 109.127C133.328 108.882 133.484 108.762 133.539 108.501C133.608 108.176 133.781 107.866 133.843 107.539C133.86 107.449 133.92 106.931 133.745 107.003C133.195 107.228 132.643 107.548 132.112 107.821C130.569 108.615 128.87 109.03 127.227 109.557C126.276 109.862 125.293 110.004 124.333 110.273C123.489 110.509 122.694 110.852 121.864 111.131C120.708 111.52 119.553 111.856 118.375 112.165C118.313 112.181 117.784 112.39 117.784 112.183C117.784 111.944 118.085 111.685 118.232 111.529C119.337 110.363 120.77 109.631 122.141 108.828C122.532 108.599 122.795 108.243 123.157 107.978C123.684 107.591 124.232 107.307 124.718 106.85C125.134 106.458 125.522 106.025 125.97 105.674C126.355 105.373 126.603 104.939 126.972 104.641C127.143 104.502 128.127 103.777 127.616 103.652C126.583 103.399 125.358 102.914 124.449 102.346C124.106 102.131 123.487 101.752 123.063 101.702C122.914 101.684 123.316 101.387 123.385 101.362C123.639 101.27 123.79 101.102 124.065 101.04C124.405 100.963 124.675 100.711 124.95 100.512C125.093 100.409 125.344 100.387 125.46 100.279C125.674 100.082 126.1 99.9263 125.782 99.653C125.289 99.2283 124.881 98.6955 124.396 98.2574C123.656 97.5896 122.849 96.9356 122.061 96.3249C120.764 95.3213 119.193 94.3557 117.632 93.8557C116.402 93.4618 115.247 92.7039 114.08 92.1514C113.496 91.8743 112.868 91.5578 112.327 91.2031C112.235 91.1426 111.912 91.0733 112.023 91.0733C112.258 91.0733 112.494 91.0733 112.729 91.0733C115.513 91.0733 118.321 91.1185 121.103 91.2344C121.889 91.2671 122.626 91.3954 123.416 91.3954C124.114 91.3954 124.812 91.3954 125.51 91.3954C125.75 91.3954 125.827 91.395 125.675 91.1449C125.428 90.7373 125.142 90.3631 124.91 89.9461C124.471 89.1563 123.86 88.497 123.506 87.6513C123.348 87.2752 123.114 86.9447 122.964 86.5643C122.845 86.2613 122.646 85.9766 123.018 86.2601C123.588 86.695 124.284 87.0474 125.013 87.0474C125.384 87.0474 127.345 87.5916 127.473 87.3784C127.589 87.1851 127.495 86.6773 127.491 86.448C127.482 85.9191 127.336 85.418 127.25 84.9002C127.013 83.4802 127.07 81.9959 126.945 80.5612C126.858 79.5503 126.767 78.5802 126.767 77.5641C126.767 76.6174 126.702 75.6731 126.91 74.746C126.989 74.3935 127.074 74.0298 127.169 73.6813C127.348 73.0237 127.955 74.344 128.1 74.5492C129.003 75.8335 130.039 77.1061 131.15 78.2172C131.887 78.9541 132.587 79.699 133.172 80.5657C133.368 80.8552 133.655 81.1956 133.897 81.438C134.034 81.5753 134.232 80.6889 134.255 80.6194C134.407 80.1637 134.676 79.8444 134.863 79.4429C134.933 79.2931 135.469 78.6905 135.471 78.7003C135.592 79.1233 135.942 79.3797 136.138 79.756C136.244 79.9602 136.352 80.1985 136.518 80.3644C136.694 80.5399 137.888 81.5028 138.07 81.3485C138.192 81.2459 138.219 80.9833 138.294 80.8475C138.434 80.5959 138.607 80.3852 138.724 80.1183C139.047 79.3786 139.522 78.6693 139.922 77.9667C140.557 76.852 141.078 75.6185 141.904 74.6297C142.261 74.2018 142.374 73.639 142.691 73.1714C143.135 72.5174 143.528 71.8364 143.962 71.1763C144.6 70.2053 145.439 69.1135 145.787 68.0003C145.793 67.9805 145.849 68.8906 145.849 69.1097C145.849 69.8552 145.849 70.6008 145.849 71.3463C145.849 73.4116 146.012 75.5251 145.545 77.5462C145.394 78.1999 145.426 78.8833 145.304 79.5413C145.242 79.8747 145.348 80.0847 145.125 80.3644" stroke="white" stroke-linecap="round"/>
<path d="M53.5626 116.81C53.8093 116.363 54.2752 116.148 54.6158 115.782C54.9811 115.391 55.3749 114.979 55.774 114.626C56.696 113.811 57.8696 113.243 58.7206 112.339C59.2721 111.753 60.0494 111.326 60.6745 110.816C61.1437 110.433 61.6334 110.104 62.115 109.741C62.3851 109.537 62.5997 109.312 62.9032 109.153C63.4275 108.879 63.9634 108.43 64.45 108.083C64.9796 107.706 65.5495 107.372 66.0645 106.976C66.8317 106.387 67.6167 105.734 68.4636 105.269C68.5862 105.201 69.5146 104.438 69.613 104.558C69.847 104.845 69.8692 105.198 70.1037 105.463C70.8475 106.301 71.2722 107.367 71.8645 108.34C72.1047 108.734 71.6652 108.896 71.3494 109.071C71.1296 109.193 70.9032 109.279 70.6732 109.377C70.4521 109.471 70.298 109.663 70.0783 109.756C69.5048 109.998 68.9679 110.299 68.4103 110.574C67.868 110.842 67.4044 111.251 66.8659 111.522C66.3404 111.786 65.9346 112.206 65.4274 112.502C64.8106 112.863 64.2116 113.25 63.5998 113.618C62.2248 114.445 60.9415 115.457 59.6036 116.346C58.7306 116.926 57.825 117.514 57.0668 118.243C56.7531 118.545 56.3876 118.796 56.1071 119.127C55.9185 119.35 55.7195 119.361 55.5188 119.175C55.2711 118.945 54.8842 118.806 54.6674 118.567C54.4741 118.353 54.2493 118.323 54.0501 118.081C53.7783 117.751 53.5646 117.097 53.1342 116.944" stroke="white" stroke-linecap="round"/>
<path d="M53.1342 116.944C52.7884 117.337 52.4831 117.851 52.2242 118.31C52.0579 118.604 51.9939 118.953 51.8116 119.244C51.5656 119.636 51.4999 120.157 51.1838 120.493C50.8586 120.839 50.9897 121.017 51.4107 120.781C51.8684 120.525 52.4146 120.427 52.922 120.31C53.361 120.21 53.6783 120.003 54.0711 119.817C54.3257 119.695 54.6155 119.573 54.8889 119.529C55.1404 119.488 55.3124 119.258 55.5723 119.263" stroke="white" stroke-linecap="round"/>
<path d="M51.8029 119.685C52.3222 119.695 52.4544 120.265 51.8625 120.253" stroke="white" stroke-linecap="round"/>
<path d="M69.6939 104.852C69.6999 104.81 70.1914 104.529 70.2651 104.476C70.4918 104.313 70.6885 104.163 70.9171 104C71.4049 103.653 72.0487 103.408 72.6316 103.419C73.0099 103.427 73.3883 103.434 73.7666 103.442C74.1538 103.449 74.3042 103.582 74.6283 103.727C75.0076 103.896 75.0353 104.321 75.1261 104.675C75.1871 104.912 75.2943 105.142 75.2894 105.388C75.2717 106.29 75.0199 106.948 74.1544 107.368C73.7624 107.558 73.3928 107.775 72.9993 107.968C72.7702 108.08 72.4345 108.383 72.1791 108.378" stroke="white" stroke-linecap="round"/>
<path d="M163.138 36.5346C162.618 36.8236 162.132 37.4397 161.743 37.8773C161.15 38.5439 160.729 39.3455 160.251 40.0928C159.344 41.5103 158.868 43.1599 158.505 44.7923C158.431 45.1292 158.29 45.4555 158.252 45.7993C158.214 46.134 158.22 46.4347 158.118 46.7616C157.895 47.4744 157.633 48.2437 157.633 48.992C157.633 49.6061 157.633 50.2203 157.633 50.8345" stroke="white" stroke-linecap="round"/>
<path d="M159.378 41.167C157.988 40.2017 156.145 38.963 154.354 39.6229C153.511 39.9334 152.986 40.61 153 41.5176C153.01 42.1264 153.442 42.555 153.903 42.8976C154.761 43.535 155.844 43.9196 156.928 43.9196C157.152 43.9196 157.501 43.9034 157.715 43.8375C158.017 43.7444 158.102 43.5839 158.438 43.5839" stroke="white" stroke-linecap="round"/>
<path d="M153.47 40.697C153.861 40.697 154.359 40.8813 154.746 40.9805C155.368 41.14 155.977 41.3553 156.618 41.4355C157.403 41.5336 158.107 41.8383 158.908 41.8383" stroke="white" stroke-linecap="round"/>
<path d="M164.346 33.9163C163.656 33.9163 163.107 34.5388 162.869 35.1397C162.724 35.508 162.764 36.0828 163.011 36.4003C163.299 36.7709 163.67 36.8031 164.107 36.8031C165.026 36.8031 165.219 35.9524 165.219 35.177C165.219 34.7684 165.166 34.4892 164.921 34.155C164.748 33.9195 164.487 33.9224 164.279 33.7149" stroke="white" stroke-linecap="round"/>
<path d="M162.601 36.0647C161.688 36.0647 160.791 36.1989 159.878 36.1989C159.223 36.1989 158.697 36.0856 158.073 35.8931C157.441 35.6984 156.791 35.6385 156.29 35.1546C155.935 34.8114 155.644 34.5332 155.384 34.1215C155.101 33.6748 155.149 33.1359 155.149 32.6258C155.149 32.1718 155.134 31.8832 155.451 31.5293C155.77 31.1722 156.063 31.0072 156.462 30.7535C157.268 30.2401 158.591 30.2388 159.531 30.3731C160.767 30.5496 162.01 31.42 163.004 32.1372C163.196 32.2762 163.394 32.5641 163.5 32.775C163.577 32.9302 163.742 33.2109 163.742 33.3792C163.742 33.6581 163.657 32.8272 163.641 32.7452C163.526 32.1437 163.413 31.5171 163.406 30.9027C163.396 29.969 163.29 28.588 163.951 27.8368C164.261 27.4849 164.885 27.2552 165.323 27.1207C165.787 26.9784 166.237 27.0014 166.718 27.0014C166.997 27.0014 167.424 27.3535 167.636 27.5123C168.106 27.8651 168.483 28.3171 168.874 28.7469C169.435 29.3642 169.563 30.5761 169.337 31.3726C168.887 32.9534 167.578 34.252 165.924 34.252C165.636 34.252 165.084 34.2928 165.752 34.2483C166.485 34.1994 167.206 34.1177 167.945 34.1177C169.002 34.1177 169.871 34.6468 170.426 35.5276C170.856 36.2107 170.808 37.0884 170.791 37.8624C170.78 38.3864 169.839 38.8254 169.411 38.8844C168.458 39.0158 167.292 38.9615 166.502 38.3473C166.06 38.0033 165.605 37.6588 165.368 37.1388C165.304 36.9966 165.092 36.7229 165.092 36.5719C165.092 36.1001 165.354 37.4795 165.517 37.9221C165.668 38.3287 165.703 38.7905 165.741 39.22C165.802 39.9063 165.852 40.7715 165.652 41.4318C165.38 42.3277 164.816 43.5835 163.634 43.2333C162.877 43.009 162.232 41.7842 162.049 41.07C161.88 40.411 161.953 39.5119 161.997 38.8321C162.011 38.6141 162.133 38.339 162.183 38.116C162.24 37.8595 162.399 37.5606 162.399 37.3067C162.399 37.2534 162.469 36.833 162.534 36.833C162.596 36.833 162.09 37.6702 162.082 37.6797C161.606 38.2374 160.942 38.5924 160.251 38.8135C159.654 39.0045 158.676 39.4907 158.05 39.2424C157.478 39.0153 157.387 38.3846 157.513 37.8475C157.56 37.6506 157.578 37.4655 157.633 37.2731C157.681 37.1028 157.852 36.9743 157.916 36.7882C157.998 36.5516 158.092 36.6327 158.3 36.598C158.418 36.5784 158.481 36.3729 158.64 36.3332" stroke="white" stroke-linecap="round"/>
</svg>
