<svg width="20" height="24" viewBox="0 0 20 24" fill="none" xmlns="http://www.w3.org/2000/svg">
<path d="M9.18924 18.7538L11.3877 17.6817C11.6925 17.5331 12.0479 17.5229 12.3613 17.6526C13.0126 17.9223 13.5149 18.4668 13.7286 19.1386L14.5655 21.7696C14.8544 22.6779 15.8951 23.1032 16.7375 22.6572C17.6012 22.2 17.82 21.061 17.1873 20.3164L15.4667 18.2913C15.016 17.7609 14.8434 17.0482 15.0015 16.3703C15.0766 16.0484 15.2926 15.7775 15.5897 15.6326L18.0627 14.4267C19.0921 13.9247 19.4497 12.6349 18.8259 11.6745L6.40466 17.448C6.7042 18.6715 8.05702 19.3059 9.18924 18.7538Z" fill="#6F3616" stroke="black"/>
<path d="M6.40476 17.497L18.826 11.6745L18.0497 10.51L5.82251 16.1384L6.40476 17.497Z" fill="#9E9E9E" stroke="black"/>
<path d="M2.69683 10.3651L4.12872 12.3698C4.35143 12.6816 4.53755 13.0179 4.68344 13.3722L5.82247 16.1384L18.0496 10.51L16.8852 7.98697L15.7206 4.49349L14.8781 2.56768C14.5547 1.82853 13.8907 1.2939 13.0996 1.13567C12.6559 1.04693 12.1964 1.08178 11.7711 1.23642L11.0694 1.49158C10.6202 1.65494 10.3595 2.1239 10.458 2.59166L10.4687 2.64273C10.5788 3.16548 9.87179 3.43939 9.60093 2.97893C9.3365 2.52939 8.75738 2.37986 8.30837 2.64519L5.46196 4.32716C5.11379 4.53289 4.97391 4.96609 5.13601 5.33659C5.32026 5.75773 4.76497 6.10627 4.46582 5.75726L4.3905 5.66939C4.10426 5.33545 3.60798 5.28097 3.25611 5.54487L2.40489 6.18329C1.17375 7.10665 1.12004 8.93469 2.29484 9.92874C2.4464 10.057 2.58144 10.2036 2.69683 10.3651Z" fill="#FCE5B8" stroke="black"/>
<path d="M2.66113 10.2879L4.27392 12.228C4.4202 12.404 4.62241 12.5245 4.8468 12.5694L5.68662 12.7373C6.48133 12.8963 7.2934 12.5599 7.74296 11.8856L8.40627 10.8906C8.7772 10.3342 9.40166 10 10.0704 10H11.3676C12.0701 10 12.7212 9.6314 13.0826 9.02899L13.5448 8.25866C13.8347 7.77547 14.315 7.437 14.8676 7.32649L15.4117 7.21767C15.9935 7.10129 16.3466 6.50679 16.1705 5.94017L15.7206 4.49349L14.8781 2.56768C14.5547 1.82853 13.8907 1.2939 13.0996 1.13567C12.6559 1.04693 12.1964 1.08178 11.7711 1.23642L11.0694 1.49158C10.6202 1.65494 10.3595 2.1239 10.458 2.59166L10.4687 2.64273C10.5788 3.16548 9.87179 3.43939 9.60094 2.97893C9.3365 2.52939 8.75738 2.37986 8.30837 2.64519L5.46196 4.32716C5.11379 4.53289 4.97391 4.96609 5.13601 5.33659C5.32026 5.75773 4.76497 6.10627 4.46582 5.75726L4.3905 5.66939C4.10426 5.33545 3.60798 5.28097 3.25611 5.54487L2.47128 6.1335C1.20616 7.08235 1.15096 8.96085 2.35819 9.98234C2.4679 10.0752 2.56926 10.1774 2.66113 10.2879Z" fill="#8D5A17" stroke="black"/>
</svg>
